<svg width="321.9625244140625px" height="122.02138671875px" xmlns="http://www.w3.org/2000/svg" viewBox="89.01873779296875 13.989306640625003 321.9625244140625 122.02138671875" style="background: rgb(255, 255, 255);" preserveAspectRatio="xMidYMid"><defs><linearGradient id="editing-gradow-gradient" x1="0" x2="1" y1="0.5" y2="0.5" gradientUnits="objectBoundingBox"><stop offset="0" stop-color="#008fde"></stop><stop offset="1" stop-color="#ff1a00"></stop></linearGradient><filter id="editing-gradow-filter" x="-100%" y="-100%" width="300%" height="300%"><feFlood flood-color="#bfc7cb" result="flood"></feFlood><feComposite operator="in" in2="SourceAlpha" in="flood" result="shadow"></feComposite><feOffset dx="-4" dy="-4" in="SourceGraphic" result="offset-1"></feOffset><feOffset dx="4" dy="4" in="shadow" result="offset-2"></feOffset><feMerge><feMergeNode in="offset-2"></feMergeNode><feMergeNode in="offset-1"></feMergeNode></feMerge></filter></defs><g filter="url(#editing-gradow-filter)"><g transform="translate(141.1031234562397, 97.45718765258789)"><path d="M0.45-0.32L0.45-0.32L8.51-42.24L8.51-42.24Q16.06-42.88 20.93-42.88L20.93-42.88L20.93-42.88Q25.79-42.88 28.93-42.46L28.93-42.46L28.93-42.46Q32.06-42.05 34.18-40.96L34.18-40.96L34.18-40.96Q38.40-38.91 38.40-33.28L38.40-33.28L38.40-33.28Q38.40-30.02 35.58-27.26L35.58-27.26L35.58-27.26Q32.96-24.77 30.08-24.19L30.08-24.19L30.08-24.19Q33.15-23.68 35.33-21.38L35.33-21.38L35.33-21.38Q37.63-18.94 37.63-15.17L37.63-15.17L37.63-15.17Q37.63-7.87 32.19-3.62L32.19-3.62L32.19-3.62Q26.75 0.64 16.06 0.64L16.06 0.64L16.06 0.64Q8.70 0.64 0.45-0.32ZM17.86-20.61L14.66-4.03L14.66-4.03Q15.23-3.97 15.36-3.97L15.36-3.97L15.94-3.97L15.94-3.97Q21.18-3.97 23.42-7.42L23.42-7.42L23.42-7.42Q25.09-10.11 25.09-15.04L25.09-15.04L25.09-15.04Q25.09-17.66 23.39-19.07L23.39-19.07L23.39-19.07Q21.70-20.48 17.86-20.61L17.86-20.61ZM27.58-33.22L27.58-33.22L27.58-33.22Q27.58-38.53 22.46-38.53L22.46-38.53L21.89-38.53L21.89-38.53Q21.63-38.53 21.25-38.46L21.25-38.46L18.69-24.96L19.33-24.96L19.33-24.96Q27.58-25.15 27.58-33.22ZM46.72 0L50.43-18.82L50.43-18.82Q48.58-36.16 42.05-39.87L42.05-39.87L42.05-39.87Q43.39-41.54 45.57-42.46L45.57-42.46L45.57-42.46Q47.74-43.39 50.37-43.39L50.37-43.39L50.37-43.39Q52.99-43.39 54.98-42.46L54.98-42.46L54.98-42.46Q56.96-41.54 58.24-39.55L58.24-39.55L58.24-39.55Q60.67-35.78 60.67-26.75L60.67-26.75L60.67-22.14L60.67-22.14Q64.51-33.41 68.35-38.27L68.35-38.27L68.35-38.27Q72.26-43.26 77.12-43.26L77.12-43.26L77.12-43.26Q79.04-43.26 80.32-42.27L80.32-42.27L80.32-42.27Q81.60-41.28 82.24-39.81L82.24-39.81L82.24-39.81Q77.31-37.63 72.58-31.36L72.58-31.36L72.58-31.36Q67.84-25.09 64.77-16.32L64.77-16.32L60.99 0L46.72 0ZM111.17-13.25L111.17-13.25L111.17-13.25Q112.83-12.03 112.83-9.44L112.83-9.44L112.83-9.44Q112.83-6.85 111.71-5.02L111.71-5.02L111.71-5.02Q110.59-3.20 108.42-1.79L108.42-1.79L108.42-1.79Q103.74 1.22 95.58 1.22L95.58 1.22L95.58 1.22Q87.42 1.22 82.98-3.04L82.98-3.04L82.98-3.04Q78.53-7.30 78.53-14.85L78.53-14.85L78.53-14.85Q78.53-25.54 84.10-33.66L84.10-33.66L84.10-33.66Q88.32-39.68 95.87-42.24L95.87-42.24L95.87-42.24Q99.78-43.52 103.62-43.52L103.62-43.52L103.62-43.52Q107.46-43.52 109.82-43.01L109.82-43.01L109.82-43.01Q112.19-42.50 113.98-41.47L113.98-41.47L113.98-41.47Q117.89-39.23 117.89-35.65L117.89-35.65L117.89-35.65Q117.89-32.38 114.82-29.95L114.82-29.95L114.82-29.95Q112-27.78 109.70-27.78L109.70-27.78L109.70-27.78Q107.39-27.78 106.43-28.10L106.43-28.10L106.43-28.10Q106.69-30.40 106.69-31.90L106.69-31.90L106.69-31.90Q106.69-33.41 106.62-34.50L106.62-34.50L106.62-34.50Q106.56-35.58 106.24-36.61L106.24-36.61L106.24-36.61Q105.60-38.98 103.65-38.98L103.65-38.98L103.65-38.98Q101.70-38.98 99.74-37.15L99.74-37.15L99.74-37.15Q97.79-35.33 96.13-32.26L96.13-32.26L96.13-32.26Q92.35-25.28 92.35-17.02L92.35-17.02L92.35-17.02Q92.35-13.06 94.59-10.78L94.59-10.78L94.59-10.78Q96.83-8.51 101.63-8.51L101.63-8.51L101.63-8.51Q105.22-8.51 108.61-10.88L108.61-10.88L108.61-10.88Q110.08-11.90 111.17-13.25ZM124.74 0L117.70 0L125.38-42.24L139.14-42.24L149.12-13.18L154.43-42.24L161.54-42.18L153.73 0L139.07 0L129.86-27.97L124.74 0ZM176.38 0L162.43 0L170.56-42.24L184.64-42.24L176.38 0ZM191.17-31.17L191.17-31.17L191.17-31.17Q188.99-32.83 188.99-36.38L188.99-36.38L188.99-36.38Q188.99-39.94 191.33-41.79L191.33-41.79L191.33-41.79Q193.66-43.65 197.70-43.65L197.70-43.65L197.70-43.65Q200.26-43.65 206.34-42.75L206.34-42.75L210.69-42.11L210.69-42.11Q212.86-41.86 215.14-41.86L215.14-41.86L215.14-41.86Q217.41-41.86 218.94-42.82L218.94-42.82L218.94-42.82Q221.25-40.77 221.25-37.82L221.25-37.82L221.25-37.82Q221.25-34.88 218.62-32.77L218.62-32.77L218.62-32.77Q215.94-30.53 212.48-30.53L212.48-30.53L212.48-30.53Q210.82-30.53 208.13-30.98L208.13-30.98L208.13-30.98Q204.99-21.12 204.99-14.27L204.99-14.27L204.99-14.27Q204.99-7.42 208.45-3.84L208.45-3.84L208.45-3.84Q206.85-0.96 204.48 0.16L204.48 0.16L204.48 0.16Q202.11 1.28 198.56 1.28L198.56 1.28L198.56 1.28Q195.01 1.28 192.80-0.67L192.80-0.67L192.80-0.67Q190.59-2.62 190.59-6.66L190.59-6.66L190.59-6.66Q190.59-11.33 193.15-19.01L193.15-19.01L193.15-19.01Q195.71-26.62 199.55-32.45L199.55-32.45L199.55-32.45Q197.70-32.64 195.78-32.64L195.78-32.64L195.78-32.64Q191.81-32.64 191.17-31.17Z" fill="url(#editing-gradow-gradient)"></path></g></g><style>text {
  font-size: 64px;
  font-family: Arial Black;
  dominant-baseline: central;
  text-anchor: middle;
}</style></svg>