<svg width="146.7137451171875px" height="178.439990234375px" xmlns="http://www.w3.org/2000/svg" viewBox="176.64312744140625 -14.219995117187494 146.7137451171875 178.439990234375" style="background: rgb(255, 255, 255);" preserveAspectRatio="xMidYMid"><defs><linearGradient id="editing-gradow-gradient" x1="0" x2="1" y1="0.5" y2="0.5" gradientUnits="objectBoundingBox"><stop offset="0" stop-color="#008fde"></stop><stop offset="1" stop-color="#ff1a00"></stop></linearGradient><filter id="editing-gradow-filter" x="-100%" y="-100%" width="300%" height="300%"><feFlood flood-color="#bfc7cb" result="flood"></feFlood><feComposite operator="in" in2="SourceAlpha" in="flood" result="shadow"></feComposite><feOffset dx="-4" dy="-4" in="SourceGraphic" result="offset-1"></feOffset><feOffset dx="4" dy="4" in="shadow" result="offset-2"></feOffset><feMerge><feMergeNode in="offset-2"></feMergeNode><feMergeNode in="offset-1"></feMergeNode></feMerge></filter></defs><g filter="url(#editing-gradow-filter)"><g transform="translate(206.2234367132187, 110.0999984741211)"><path d="M22.40 0L0.60 0L13.30-66L35.30-66L22.40 0ZM45.50-48.70L45.50-48.70L45.50-48.70Q42.10-51.30 42.10-56.85L42.10-56.85L42.10-56.85Q42.10-62.40 45.75-65.30L45.75-65.30L45.75-65.30Q49.40-68.20 55.70-68.20L55.70-68.20L55.70-68.20Q59.70-68.20 69.20-66.80L69.20-66.80L76-65.80L76-65.80Q79.40-65.40 82.95-65.40L82.95-65.40L82.95-65.40Q86.50-65.40 88.90-66.90L88.90-66.90L88.90-66.90Q92.50-63.70 92.50-59.10L92.50-59.10L92.50-59.10Q92.50-54.50 88.40-51.20L88.40-51.20L88.40-51.20Q84.20-47.70 78.80-47.70L78.80-47.70L78.80-47.70Q76.20-47.70 72-48.40L72-48.40L72-48.40Q67.10-33 67.10-22.30L67.10-22.30L67.10-22.30Q67.10-11.60 72.50-6L72.50-6L72.50-6Q70-1.50 66.30 0.25L66.30 0.25L66.30 0.25Q62.60 2 57.05 2L57.05 2L57.05 2Q51.50 2 48.05-1.05L48.05-1.05L48.05-1.05Q44.60-4.10 44.60-10.40L44.60-10.40L44.60-10.40Q44.60-17.70 48.60-29.70L48.60-29.70L48.60-29.70Q52.60-41.60 58.60-50.70L58.60-50.70L58.60-50.70Q55.70-51 52.70-51L52.70-51L52.70-51Q46.50-51 45.50-48.70Z" fill="url(#editing-gradow-gradient)"></path></g></g><style>text {
  font-size: 64px;
  font-family: Arial Black;
  dominant-baseline: central;
  text-anchor: middle;
}</style></svg>